<svg width="344" height="236" viewBox="0 0 344 236" fill="none" xmlns="http://www.w3.org/2000/svg">
<path d="M252.355 159.639L241.108 168.53C241.108 168.53 232.12 161.06 232.528 157.59C232.937 154.121 240.291 147.952 243.776 148.699C247.26 149.446 252.355 159.639 252.355 159.639Z" fill="#DAE2F3"/>
<path d="M281.675 199.181L270.404 207.952C270.404 207.952 275.547 218.482 278.983 218.892C282.42 219.301 290.182 213.591 290.23 210C290.278 206.41 281.675 199.181 281.675 199.181Z" fill="#DAE2F3"/>
<path d="M237.359 173.783L237.479 188.241C237.479 188.241 226.088 190.795 223.612 188.241C221.137 185.687 220.729 176.193 223.492 173.783C226.256 171.374 237.359 173.783 237.359 173.783Z" fill="#DAE2F3"/>
<path d="M241.949 158.41C237.009 162.311 233.333 167.593 231.387 173.588C229.44 179.583 229.311 186.023 231.014 192.092C232.718 198.161 236.178 203.588 240.957 207.685C245.737 211.783 251.62 214.368 257.865 215.112C264.109 215.857 270.433 214.728 276.038 211.869C281.642 209.01 286.276 204.549 289.352 199.05C292.427 193.55 293.808 187.26 293.318 180.974C292.829 174.688 290.491 168.689 286.601 163.735C284.018 160.446 280.814 157.698 277.172 155.65C273.53 153.603 269.522 152.294 265.375 151.799C261.229 151.305 257.026 151.634 253.007 152.768C248.987 153.903 245.23 155.82 241.949 158.41ZM271.966 196.627C269.358 198.713 266.19 199.974 262.866 200.251C259.541 200.527 256.21 199.806 253.295 198.18C250.38 196.553 248.013 194.094 246.495 191.116C244.977 188.137 244.376 184.774 244.77 181.452C245.163 178.131 246.532 175.001 248.704 172.462C250.875 169.923 253.75 168.088 256.964 167.191C260.178 166.294 263.585 166.376 266.753 167.425C269.92 168.474 272.705 170.444 274.753 173.085C277.463 176.586 278.69 181.016 278.169 185.417C277.647 189.818 275.419 193.836 271.966 196.603V196.627Z" fill="#5C83BB"/>
<path d="M239.57 194.096L246.467 206.675C246.467 206.675 237.648 214.361 234.307 213.398C230.966 212.434 226.04 204.145 227.41 200.819C228.78 197.494 239.57 194.096 239.57 194.096Z" fill="#5C83BB"/>
<path d="M285.712 174.675L277.301 163.036C277.301 163.036 285.111 154.337 288.548 154.868C291.985 155.398 297.873 163.036 296.935 166.506C295.998 169.976 285.712 174.675 285.712 174.675Z" fill="#5C83BB"/>
<path d="M257.45 157.349L271.341 160.843C271.341 160.843 276.508 150.337 274.729 147.349C272.951 144.362 263.699 141.687 260.839 143.856C257.979 146.024 257.45 157.349 257.45 157.349Z" fill="#5C83BB"/>
<path d="M264.371 211.566L250.481 208.072C250.481 208.072 245.314 218.578 247.116 221.566C248.919 224.554 258.147 227.229 261.007 225.06C263.867 222.892 264.371 211.566 264.371 211.566Z" fill="#5C83BB"/>
<path d="M287.082 194.193L286.962 179.735C286.962 179.735 298.377 177.181 300.829 179.614C303.28 182.048 303.713 191.663 300.949 194.072C298.185 196.482 287.082 194.193 287.082 194.193Z" fill="#5C83BB"/>
<path d="M90.1366 209.229C90.9221 210.542 91.1559 212.115 90.7864 213.601C90.417 215.087 89.4745 216.366 88.1659 217.156C86.8557 217.944 85.2873 218.178 83.805 217.808C82.3227 217.438 81.0475 216.493 80.2592 215.181L29.6229 130.843C29.2302 130.192 28.9696 129.469 28.8561 128.716C28.7426 127.963 28.7784 127.196 28.9615 126.457C29.1446 125.718 29.4713 125.023 29.923 124.411C30.3747 123.799 30.9424 123.283 31.5936 122.891C32.9038 122.104 34.4721 121.869 35.9545 122.24C37.4368 122.61 38.712 123.555 39.5003 124.867L90.1366 209.229Z" fill="#6581C0"/>
<path d="M27.2438 104.337L35.2706 117.759L25.4173 123.614L17.3664 110.193C15.22 113.015 14.1191 116.498 14.2523 120.046C14.3854 123.593 15.7444 126.983 18.0964 129.636C20.4484 132.289 23.6472 134.039 27.1448 134.587C30.6425 135.136 34.2214 134.448 37.2688 132.641C40.3162 130.835 42.6423 128.022 43.8489 124.685C45.0555 121.348 45.0675 117.694 43.8827 114.349C42.698 111.004 40.3903 108.177 37.3548 106.35C34.3193 104.523 30.7449 103.812 27.2438 104.337Z" fill="#6581C0"/>
<path d="M129.79 182.819H127.699V180.41H129.79C133.035 180.41 134.885 180.41 134.885 180.41V182.819C134.885 182.819 133.227 182.819 129.79 182.819ZM120.442 182.651C118.207 182.651 115.779 182.458 113.232 182.313L113.376 179.904C115.948 180.048 118.375 180.169 120.586 180.241L120.442 182.651ZM106.022 181.783C103.619 181.59 101.216 181.349 98.8124 181.084L99.0768 178.675C101.48 178.94 103.883 179.181 106.287 179.374L106.022 181.783ZM91.6027 180.193C89.2475 179.872 86.8443 179.502 84.393 179.084L84.8015 176.675C87.2048 177.076 89.608 177.438 92.0112 177.759L91.6027 180.193ZM77.1833 177.783C74.8281 177.301 72.4248 176.779 69.9735 176.217L70.5263 173.807C72.8654 174.37 75.2046 174.884 77.5437 175.349L77.1833 177.783ZM63.2204 174.217C60.8172 173.542 58.4139 172.795 56.2751 172.048L57.0441 169.759C59.231 170.506 61.5382 171.205 63.8933 171.88L63.2204 174.217ZM49.4258 169.542C47.0226 168.627 44.8837 167.639 42.7448 166.627L43.7782 164.458C45.893 165.47 48.08 166.434 50.315 167.325L49.4258 169.542ZM36.2561 163.229C34.0931 161.976 32.0023 160.675 30.0797 159.325L31.4496 157.349C33.3241 158.651 35.3428 159.952 37.4577 161.157L36.2561 163.229ZM24.2398 154.795C22.395 153.18 20.6532 151.449 19.0248 149.614L20.8272 148.024C22.3962 149.783 24.0738 151.44 25.85 152.988L24.2398 154.795ZM14.6269 143.783C13.2672 141.727 12.0699 139.568 11.046 137.325L13.233 136.337C14.2005 138.464 15.3335 140.51 16.6216 142.458L14.6269 143.783ZM8.52265 130.386C7.87085 128.015 7.39688 125.598 7.10472 123.157L9.50797 122.868C9.78656 125.187 10.2364 127.482 10.8538 129.735L8.52265 130.386ZM9.12346 115.928H6.72021C6.76027 113.51 6.93679 111.097 7.24893 108.699L9.65217 109.012C9.32955 111.321 9.13697 113.646 9.07538 115.976L9.12346 115.928ZM10.8298 101.928L8.42651 101.398C8.95523 98.988 9.60411 96.7229 10.3491 94.3374L12.7524 95.0603C12.0314 97.3494 11.3585 99.6627 10.8298 101.928ZM15.0354 88.2892L12.8004 87.4699C13.6656 85.0603 14.5788 82.9157 15.5401 80.7229L17.7511 81.6868C16.8379 83.7832 15.9006 86 15.0595 88.2651L15.0354 88.2892ZM20.7551 75.1808L18.6163 74.0964C19.7217 71.9277 20.8753 69.7591 22.0769 67.6868L24.1678 68.8916C22.9902 70.8916 21.8366 73.0121 20.7792 75.1326L20.7551 75.1808ZM27.9649 62.8193L25.9702 61.494C27.316 59.4458 28.7579 57.4458 30.1999 55.5422L32.0984 57.0121C30.6565 58.8193 29.2626 60.7711 27.9168 62.7711L27.9649 62.8193ZM36.5925 51.3253L34.7901 49.735C36.4002 47.9036 38.1065 46.0964 39.8128 44.4338L41.4951 46.1446C39.8129 47.9036 38.1546 49.6386 36.5925 51.3253ZM104.051 50.5542C101.522 49.9924 99.1499 48.8729 97.1061 47.2771L98.5721 45.3735C100.333 46.748 102.377 47.7111 104.556 48.1928L104.051 50.5542ZM111.838 49.4217L110.805 47.253C112.768 46.4073 114.357 44.8742 115.275 42.9398L117.486 43.8795C116.359 46.4058 114.338 48.4234 111.814 49.5422L111.838 49.4217ZM92.0833 41.6868C90.8399 39.4484 90.0248 36.9966 89.6801 34.4579L92.0833 34.0964C92.4195 36.3363 93.1693 38.4936 94.2943 40.4579L92.0833 41.6868ZM46.7582 41.5181L45.2201 39.6627C47.0947 38.0964 49.0413 36.5783 51.012 35.1807L52.4058 37.1567C50.4832 38.4579 48.5606 39.9277 46.7342 41.4699L46.7582 41.5181ZM114.794 37.1326C113.722 35.1324 112.307 33.3377 110.612 31.8314L112.247 30.0723C114.193 31.769 115.82 33.801 117.053 36.0723L114.794 37.1326ZM58.3418 33.2289L57.1162 31.1567C59.2551 29.9036 61.418 28.747 63.5809 27.735L64.5903 29.9277C62.4995 30.8916 60.4086 32.0482 58.3418 33.2289ZM105.109 27.494C103.155 26.2931 101.032 25.3916 98.8124 24.8193L99.4132 22.4097C101.867 23.0208 104.216 23.9953 106.383 25.3012L105.109 27.494ZM92.1074 27.2289L89.7041 26.7952C89.8988 25.7685 90.1556 24.7545 90.4732 23.7591C88.6036 23.7296 86.7338 23.8101 84.8736 24L84.6333 21.5904C86.8601 21.3554 89.1005 21.2749 91.3383 21.3494C91.5787 20.7872 91.835 20.2169 92.1074 19.6386L94.2703 20.6988C93.2583 22.7675 92.5307 24.9642 92.1074 27.2289ZM71.1751 27.2289L70.358 24.8193C72.6659 24.0006 75.0165 23.3088 77.3995 22.747L77.9523 25.1567C75.6574 25.7235 73.395 26.4153 71.1751 27.2289ZM98.0193 14.8675L96.1208 13.3976C97.5972 11.4673 99.2116 9.64727 100.951 7.95183L102.61 9.68678C100.947 11.2898 99.4051 13.0134 97.9953 14.8434L98.0193 14.8675ZM108.113 5.06027L106.647 3.15665C108.041 2.09641 109.507 1.03617 111.045 0.0482178L112.367 2.04822C110.877 2.98798 109.459 4.00003 108.161 5.03617L108.113 5.06027Z" fill="#3D525D"/>
<path d="M148.5 236C215.603 236 270 233.09 270 229.5C270 225.91 215.603 223 148.5 223C81.3974 223 27 225.91 27 229.5C27 233.09 81.3974 236 148.5 236Z" fill="#E5E5E5"/>
<path d="M38.2989 152.145C33.9299 153.306 30.0024 155.74 27.0128 159.139C24.0233 162.538 22.106 166.749 21.5034 171.241C20.9008 175.732 21.6399 180.302 23.6273 184.372C25.6148 188.442 28.7612 191.83 32.6689 194.108C36.5766 196.385 41.0701 197.45 45.5811 197.167C50.0921 196.884 54.4182 195.266 58.0124 192.518C61.6065 189.77 64.3074 186.015 65.7734 181.729C67.2394 177.442 67.4048 172.815 66.2486 168.434C65.4807 165.524 64.1485 162.794 62.3282 160.401C60.5078 158.007 58.2349 155.996 55.6394 154.484C53.0439 152.971 50.1766 151.986 47.2012 151.585C44.2259 151.183 41.2009 151.374 38.2989 152.145ZM47.215 185.88C44.917 186.487 42.4909 186.398 40.2436 185.623C37.9963 184.848 36.0286 183.422 34.5894 181.526C33.1502 179.63 32.3042 177.348 32.1582 174.97C32.0122 172.592 32.5728 170.223 33.7692 168.164C34.9657 166.105 36.7441 164.449 38.8797 163.403C41.0153 162.358 43.4121 161.971 45.767 162.291C48.122 162.611 50.3293 163.625 52.1099 165.203C53.8905 166.781 55.1644 168.853 55.7705 171.157C56.1838 172.692 56.29 174.293 56.0831 175.87C55.8762 177.446 55.3602 178.965 54.5649 180.341C53.7696 181.716 52.7107 182.92 51.4493 183.883C50.1878 184.846 48.7487 185.549 47.215 185.952V185.88Z" fill="#B0B0B0"/>
<path d="M44.8116 155.928L34.8382 158.554C34.8382 158.554 31.041 151.036 32.2907 148.916C33.5404 146.795 40.1734 144.747 42.2642 146.289C44.355 147.832 44.8116 155.928 44.8116 155.928Z" fill="#B0B0B0"/>
<path d="M52.8863 190.41L42.9128 193.036C42.9128 193.036 43.2974 201.446 45.4603 202.675C47.6232 203.904 54.3763 202.386 55.4337 200.024C56.4911 197.663 52.8863 190.41 52.8863 190.41Z" fill="#B0B0B0"/>
<path d="M30.8969 160.964L26.8835 170.482C26.8835 170.482 18.6163 168.892 17.6791 166.578C16.7418 164.265 19.2412 157.783 21.6444 157.06C24.0477 156.337 30.8969 160.964 30.8969 160.964Z" fill="#B0B0B0"/>
<path d="M26.4509 174.988L27.4122 185.277C27.4122 185.277 19.4093 187.807 17.4868 186.217C15.5642 184.627 14.675 177.735 16.5255 175.928C18.376 174.121 26.4509 174.988 26.4509 174.988Z" fill="#B0B0B0"/>
<path d="M62.4997 175.422L60.2646 165.326C60.2646 165.326 67.9069 161.807 70.0218 163.157C72.1367 164.506 73.843 171.229 72.2328 173.253C70.6226 175.277 62.4997 175.422 62.4997 175.422Z" fill="#FFDA8A"/>
<path d="M48.8252 155.88L56.9962 162.169C56.9962 162.169 63.3888 156.699 63.0764 154.217C62.764 151.735 57.4048 147.326 54.9054 147.928C52.406 148.53 48.8252 155.88 48.8252 155.88Z" fill="#B0B0B0"/>
<path d="M37.9144 193.639L29.7434 187.35C29.7434 187.35 23.3508 192.82 23.6632 195.278C23.9756 197.735 29.3348 202.169 31.8342 201.567C34.3336 200.964 37.9144 193.639 37.9144 193.639Z" fill="#B0B0B0"/>
<path d="M57.8613 188.675L61.8747 179.157C61.8747 179.157 70.1419 180.747 71.0792 183.06C72.0164 185.374 69.5411 191.856 67.0657 192.578C64.5904 193.301 57.8613 188.675 57.8613 188.675Z" fill="#FFDA8A"/>
<path d="M208.424 92.8674L190.328 97.6867C190.328 97.6867 191.049 112.988 194.966 115.277C198.883 117.566 211.14 114.771 213.063 110.458C214.985 106.145 208.424 92.8674 208.424 92.8674Z" fill="#FFDA8A"/>
<path d="M160.6 64.8435L162.354 83.5423C162.354 83.5423 147.79 88.1447 144.306 85.2532C140.821 82.3616 139.187 69.8556 142.551 66.5544C145.916 63.2532 160.6 64.8435 160.6 64.8435Z" fill="#FFDA8A"/>
<path d="M181.94 23.3012C173.999 25.4035 166.859 29.8195 161.421 35.9909C155.983 42.1622 152.492 49.8116 151.39 57.972C150.288 66.1324 151.623 74.4373 155.228 81.8365C158.833 89.2357 164.546 95.397 171.643 99.5413C178.74 103.686 186.903 105.627 195.101 105.119C203.298 104.612 211.161 101.679 217.696 96.6909C224.231 91.7029 229.144 84.884 231.814 77.0964C234.484 69.3088 234.791 60.9023 232.697 52.9397C231.306 47.6517 228.889 42.6902 225.585 38.3387C222.281 33.9872 218.155 30.3309 213.442 27.5786C208.728 24.8263 203.52 23.032 198.115 22.2981C192.71 21.5641 187.214 21.905 181.94 23.3012ZM198.114 84.747C193.937 85.852 189.526 85.6902 185.44 84.2821C181.355 82.8739 177.777 80.2826 175.16 76.8359C172.543 73.3891 171.004 69.2417 170.738 64.918C170.471 60.5943 171.49 56.2886 173.664 52.5452C175.838 48.8018 179.071 45.7888 182.952 43.8873C186.834 41.9858 191.192 41.2812 195.473 41.8625C199.754 42.4437 203.768 44.2849 207.005 47.153C210.243 50.0212 212.56 53.7875 213.663 57.9759C215.135 63.59 214.324 69.5605 211.409 74.5757C208.493 79.5909 203.712 83.2405 198.114 84.7229V84.747Z" fill="#5C83BB"/>
<path d="M193.74 30.1687L175.644 34.988C175.644 34.988 168.746 21.3253 171.03 17.3976C173.313 13.4699 185.449 9.83137 189.126 12.5784C192.803 15.3253 193.74 30.1687 193.74 30.1687Z" fill="#5C83BB"/>
<path d="M168.482 39.2771L161.272 56.5542C161.272 56.5542 146.276 53.6867 144.45 49.4698C142.623 45.253 147.237 33.4699 151.659 32.1927C156.081 30.9156 168.482 39.2771 168.482 39.2771Z" fill="#5C83BB"/>
<path d="M225.92 65.5903L221.882 47.2771C221.882 47.2771 235.773 40.9157 239.594 43.3494C243.415 45.7831 246.563 58.0241 243.631 61.6867C240.7 65.3494 225.92 65.5903 225.92 65.5903Z" fill="#5C83BB"/>
<path d="M201.046 30.1205L215.898 41.5422C215.898 41.5422 227.53 31.6144 226.929 27.0843C226.328 22.5542 216.619 14.5542 212.077 15.6626C207.535 16.7711 201.046 30.1205 201.046 30.1205Z" fill="#5C83BB"/>
<path d="M181.243 98.6987L166.391 87.277C166.391 87.277 154.76 97.1806 155.36 101.735C155.961 106.289 165.67 114.265 170.212 113.157C174.755 112.048 181.243 98.6987 181.243 98.6987Z" fill="#FFDA8A"/>
<path d="M217.484 89.7108L224.694 72.4337C224.694 72.4337 239.69 75.3012 241.396 79.5181C243.103 83.7349 238.609 95.5181 234.187 96.7952C229.765 98.0723 217.484 89.7108 217.484 89.7108Z" fill="#FFDA8A"/>
<path d="M182.421 181.325H122.749V220.602H182.421V181.325Z" fill="#DBDBDB"/>
<path d="M243.92 58.5543H61.8745C60.6513 58.5574 59.4408 58.8036 58.3131 59.2788C57.1855 59.754 56.1629 60.4486 55.3047 61.3225C54.4465 62.1965 53.7697 63.2324 53.3133 64.3703C52.8569 65.5082 52.6302 66.7256 52.646 67.9519V174.506H253.173V67.9519C253.188 66.7235 252.961 65.5042 252.503 64.3647C252.045 63.2252 251.366 62.1882 250.505 61.314C249.645 60.4397 248.619 59.7456 247.489 59.2718C246.358 58.7981 245.145 58.5542 243.92 58.5543Z" fill="#DEDEDE"/>
<path d="M243.92 210.048H61.8745C60.6565 210.048 59.4505 209.807 58.3262 209.337C57.2018 208.868 56.1812 208.18 55.3234 207.313C54.4655 206.446 53.7872 205.417 53.3277 204.286C52.8682 203.155 52.6365 201.944 52.646 200.723V174.482H253.172V200.723C253.179 201.945 252.944 203.157 252.482 204.288C252.02 205.419 251.339 206.448 250.48 207.314C249.62 208.181 248.598 208.868 247.472 209.338C246.346 209.807 245.139 210.048 243.92 210.048Z" fill="#3D525D"/>
<path d="M227.385 220.603H62.7634V229.735H227.385V220.603Z" fill="#C4C4C4"/>
<path d="M244.593 68.434H59.4473V174.482H244.593V68.434Z" fill="white"/>
<path d="M289.822 174.554C287.779 173.759 296.142 161.807 287.034 156.964C275.018 150.578 288.26 130.458 283.213 130.94C275.667 131.687 273.6 143.446 274.922 156.602C276.652 173.47 268.096 168.867 267.928 168.771C263.122 166.554 260.935 168.771 263.122 183.229C265.309 197.687 270.836 208.916 275.595 208.217C275.871 208.169 276.138 208.08 276.388 207.952C276.686 208.036 276.992 208.092 277.301 208.12C278.017 208.137 278.726 207.98 279.368 207.663C285.352 207.976 285.712 205.422 290.735 192.434C296.214 178.169 295.854 176.891 289.822 174.554Z" fill="#6BC7B8"/>
<path d="M289.87 228.675H268.601L266.27 204.217H292.201L289.87 228.675Z" fill="#FFDA8A"/>
<path d="M288.909 100.097C288.909 122.362 261.392 134.675 239.186 134.675C216.98 134.675 200.734 122.048 200.734 99.7833C200.734 77.5182 219.744 65.3737 241.949 65.3737C264.155 65.3737 288.909 77.8315 288.909 100.097Z" fill="#E10000"/>
<path d="M227.66 94H230.9V108H227.66V94ZM237.123 96.64H232.643V94H244.843V96.64H240.363V108H237.123V96.64ZM246.586 94H249.826V108H246.586V94ZM253.148 94H256.388V105.36H263.408V108H253.148V94Z" fill="white"/>
<path d="M205.348 145.109L219.984 127.301L207.583 109.47L205.348 145.109Z" fill="#E10000"/>
<path d="M28.2532 77.7109C28.2532 96.1688 53.6074 110.458 72.0162 110.458C80.8598 110.458 89.3413 106.935 95.5947 100.665C101.848 94.3954 105.361 85.8914 105.361 77.0242C105.361 68.157 101.848 59.653 95.5947 53.383C89.3413 47.1129 80.8598 43.5905 72.0162 43.5905C53.5833 43.5905 28.2532 59.2531 28.2532 77.7109Z" fill="#FF4013"/>
<path d="M101.6 114.602L89.8245 105.277L99.7498 85.0603L101.6 114.602Z" fill="#FF4013"/>
<path d="M165.887 66.1685L163.364 65.4215L166.247 62.4336L176.87 66.1203L165.887 66.1685Z" fill="#F0C540"/>
<path d="M165.646 70.313L176.87 66.1202L165.959 64.6744L165.646 70.313Z" fill="#FAD77E"/>
<path d="M176.87 66.1203L166.127 63.2046L166.92 58.0962L176.87 66.1203Z" fill="#FAD784"/>
<path d="M163.364 65.4214L165.959 64.6744L165.887 66.1684L163.364 65.4214Z" fill="#DBAB2F"/>
<path d="M166.824 111.301C164.414 111.28 162.008 111.127 159.615 110.843L160.143 106.024C165.911 106.674 172.159 106.433 173.385 105.518C174.43 101.423 174.43 97.1306 173.385 93.0359L177.999 91.7106C179.373 96.7997 179.373 102.164 177.999 107.253C176.846 110.385 172.135 111.301 166.824 111.301Z" fill="#1E2127"/>
<path d="M165.262 108.843C165.262 109.796 164.885 110.709 164.213 111.382C163.542 112.055 162.631 112.434 161.681 112.434H158.1C157.151 112.434 156.24 112.055 155.568 111.382C154.897 110.709 154.52 109.796 154.52 108.843C154.52 107.891 154.897 106.978 155.568 106.305C156.24 105.631 157.151 105.253 158.1 105.253H161.681C162.631 105.253 163.542 105.631 164.213 106.305C164.885 106.978 165.262 107.891 165.262 108.843Z" fill="#3D525D"/>
<path d="M180.955 85.4457C180.955 86.7987 180.688 88.1383 180.169 89.3871C179.649 90.6359 178.889 91.7692 177.93 92.7214C176.971 93.6737 175.834 94.426 174.584 94.9349C173.333 95.4439 171.995 95.6994 170.645 95.6867C167.937 95.6867 165.339 94.6077 163.423 92.6871C161.508 90.7666 160.432 88.1618 160.432 85.4457V75.6866C160.432 72.9706 161.508 70.3657 163.423 68.4452C165.339 66.5246 167.937 65.4457 170.645 65.4457C173.354 65.4457 175.952 66.5246 177.868 68.4452C179.783 70.3657 180.859 72.9706 180.859 75.6866L180.955 85.4457Z" fill="#3D525D"/>
<path d="M126.57 89.4697C127.435 109.47 138.586 125.325 151.588 124.867C164.589 124.409 174.322 107.831 173.457 87.8311C172.592 67.8311 161.441 51.9516 148.439 52.4094C135.438 52.8673 125.705 69.4456 126.57 89.4697Z" fill="#FCC192"/>
<path d="M170.381 70.313C170.381 70.313 157.884 72.3612 136.375 64.2166C136.375 64.2166 119.841 80.0479 130.703 104.867C130.703 104.867 114.866 90.4094 122.676 65.3973C130.487 40.3853 146.709 45.0118 155.433 41.9274C164.156 38.8431 174.082 44.3371 180.546 38.5057C187.011 32.6744 189.126 55.1804 170.381 70.313Z" fill="#2F3C57"/>
<path d="M122.268 89.301C122.412 94.7708 124.863 99.1082 127.747 98.9395C130.631 98.7708 132.818 94.1202 132.554 88.7467C132.289 83.3732 129.934 78.9395 127.074 79.1082C124.215 79.2768 122.1 83.807 122.268 89.301Z" fill="#FCC192"/>
<path d="M148.512 129C121.263 129 98.3992 148.569 92.0002 175H205C198.625 148.55 175.738 129 148.512 129Z" fill="#1E2127"/>
<path d="M158.389 138.506L150.025 148.482L141.662 138.506V119.638H158.389V138.506Z" fill="#FCC192"/>
<path d="M132.962 86.8433C132.966 88.1882 132.704 89.5205 132.194 90.7642C131.684 92.0079 130.934 93.1386 129.988 94.0918C129.042 95.045 127.917 95.802 126.679 96.3196C125.441 96.8372 124.114 97.1052 122.773 97.1084C120.064 97.1084 117.466 96.0294 115.55 94.1089C113.635 92.1883 112.559 89.5835 112.559 86.8674V77.0602C112.559 74.3441 113.635 71.7393 115.55 69.8187C117.466 67.8982 120.064 66.8192 122.773 66.8192C125.481 66.8192 128.079 67.8982 129.995 69.8187C131.91 71.7393 132.986 74.3441 132.986 77.0602L132.962 86.8433Z" fill="#3D525D"/>
<path d="M152.957 41.4697H137C132.277 41.4697 127.747 43.3509 124.408 46.6995C121.068 50.048 119.192 54.5896 119.192 59.3251V70.3372H124.287V61.1324C124.287 57.3363 125.791 53.6956 128.468 51.0114C131.145 48.3271 134.776 46.8191 138.562 46.8191H151.419C155.205 46.8191 158.836 48.3271 161.514 51.0114C164.191 53.6956 165.695 57.3363 165.695 61.1324V70.3131H170.645V59.3011C170.639 54.5905 168.777 50.0732 165.464 46.7333C162.151 43.3934 157.655 41.5015 152.957 41.4697Z" fill="#1E2127"/>
<path d="M141.662 54.2408C141.662 54.2408 147.766 42.6263 155.865 41.783C163.964 40.9396 173.121 42.7709 176.822 40.6263C180.523 38.4818 185.906 34.2167 185.113 41.783C184.32 49.3492 187.3 66.4577 171.366 75.0119C171.366 75.0119 141.83 74.4818 136.351 64.2167L141.662 54.2408Z" fill="#2F3C57"/>
<path d="M44.66 71H47.9V85H44.66V71ZM54.1225 73.64H49.6425V71H61.8425V73.64H57.3625V85H54.1225V73.64ZM68.0881 85.24C66.9815 85.24 65.9081 85.0933 64.8681 84.8C63.8415 84.4933 63.0148 84.1 62.3881 83.62L63.4881 81.18C64.0881 81.62 64.8015 81.9733 65.6281 82.24C66.4548 82.5067 67.2815 82.64 68.1081 82.64C69.0281 82.64 69.7081 82.5067 70.1481 82.24C70.5881 81.96 70.8081 81.5933 70.8081 81.14C70.8081 80.8067 70.6748 80.5333 70.4081 80.32C70.1548 80.0933 69.8215 79.9133 69.4081 79.78C69.0081 79.6467 68.4615 79.5 67.7681 79.34C66.7015 79.0867 65.8281 78.8333 65.1481 78.58C64.4681 78.3267 63.8815 77.92 63.3881 77.36C62.9081 76.8 62.6681 76.0533 62.6681 75.12C62.6681 74.3067 62.8881 73.5733 63.3281 72.92C63.7681 72.2533 64.4281 71.7267 65.3081 71.34C66.2015 70.9533 67.2881 70.76 68.5681 70.76C69.4615 70.76 70.3348 70.8667 71.1881 71.08C72.0415 71.2933 72.7881 71.6 73.4281 72L72.4281 74.46C71.1348 73.7267 69.8415 73.36 68.5481 73.36C67.6415 73.36 66.9681 73.5067 66.5281 73.8C66.1015 74.0933 65.8881 74.48 65.8881 74.96C65.8881 75.44 66.1348 75.8 66.6281 76.04C67.1348 76.2667 67.9015 76.4933 68.9281 76.72C69.9948 76.9733 70.8681 77.2267 71.5481 77.48C72.2281 77.7333 72.8081 78.1333 73.2881 78.68C73.7815 79.2267 74.0281 79.9667 74.0281 80.9C74.0281 81.7 73.8015 82.4333 73.3481 83.1C72.9081 83.7533 72.2415 84.2733 71.3481 84.66C70.4548 85.0467 69.3681 85.24 68.0881 85.24ZM88.982 85L88.962 76.6L84.842 83.52H83.382L79.282 76.78V85H76.242V71H78.922L84.162 79.7L89.322 71H91.982L92.022 85H88.982Z" fill="white"/>
</svg>
